PathFileType	4	(X/Y/Z)	Kaydara	
DataRate	CameraRate	NumFrames	NumMarkers	Units	OrigDataRate	OrigDataStartFrame	OrigNumFrames	
120.00	120.00	4	72	mm	120.00	68	268	
Frame#	Time	Hips			RightUpLeg			RightLeg			RightFoot			RightFoot_End			LeftUpLeg			LeftLeg			LeftFoot			LeftFoot_End			Spine			Spine1			Spine2			Spine3			Neck			Head			Head_End			RightShoulder			RightArm			RightForeArm			RightHand			RightHandThumb1			RightHandThumb2			RightHandThumb3			RightHandThumb3_End			RightInHandIndex			RightHandIndex1			RightHandIndex2			RightHandIndex3			RightHandIndex3_End			RightInHandMiddle			RightHandMiddle1			RightHandMiddle2			RightHandMiddle3			RightHandMiddle3_End			RightInHandRing			RightHandRing1			RightHandRing2			RightHandRing3			RightHandRing3_End			RightInHandPinky			RightHandPinky1			RightHandPinky2			RightHandPinky3			RightHandPinky3_End			LeftShoulder			LeftArm			LeftForeArm			LeftHand			LeftHandThumb1			LeftHandThumb2			LeftHandThumb3			LeftHandThumb3_End			LeftInHandIndex			LeftHandIndex1			LeftHandIndex2			LeftHandIndex3			LeftHandIndex3_End			LeftInHandMiddle			LeftHandMiddle1			LeftHandMiddle2			LeftHandMiddle3			LeftHandMiddle3_End			LeftInHandRing			LeftHandRing1			LeftHandRing2			LeftHandRing3			LeftHandRing3_End			LeftInHandPinky			LeftHandPinky1			LeftHandPinky2			LeftHandPinky3			LeftHandPinky3_End			
		X1	Y1	Z1	X2	Y2	Z2	X3	Y3	Z3	X4	Y4	Z4	X5	Y5	Z5	X6	Y6	Z6	X7	Y7	Z7	X8	Y8	Z8	X9	Y9	Z9	X10	Y10	Z10	X11	Y11	Z11	X12	Y12	Z12	X13	Y13	Z13	X14	Y14	Z14	X15	Y15	Z15	X16	Y16	Z16	X17	Y17	Z17	X18	Y18	Z18	X19	Y19	Z19	X20	Y20	Z20	X21	Y21	Z21	X22	Y22	Z22	X23	Y23	Z23	X24	Y24	Z24	X25	Y25	Z25	X26	Y26	Z26	X27	Y27	Z27	X28	Y28	Z28	X29	Y29	Z29	X30	Y30	Z30	X31	Y31	Z31	X32	Y32	Z32	X33	Y33	Z33	X34	Y34	Z34	X35	Y35	Z35	X36	Y36	Z36	X37	Y37	Z37	X38	Y38	Z38	X39	Y39	Z39	X40	Y40	Z40	X41	Y41	Z41	X42	Y42	Z42	X43	Y43	Z43	X44	Y44	Z44	X45	Y45	Z45	X46	Y46	Z46	X47	Y47	Z47	X48	Y48	Z48	X49	Y49	Z49	X50	Y50	Z50	X51	Y51	Z51	X52	Y52	Z52	X53	Y53	Z53	X54	Y54	Z54	X55	Y55	Z55	X56	Y56	Z56	X57	Y57	Z57	X58	Y58	Z58	X59	Y59	Z59	X60	Y60	Z60	X61	Y61	Z61	X62	Y62	Z62	X63	Y63	Z63	X64	Y64	Z64	X65	Y65	Z65	X66	Y66	Z66	X67	Y67	Z67	X68	Y68	Z68	X69	Y69	Z69	X70	Y70	Z70	X71	Y71	Z71	X72	Y72	Z72	

68	0.558	446.8050000000003	859.65103	-201.189	534.2787599999992	859.29218	-233.97558	404.30652999999984	465.61029	-292.40087	442.2803700000004	50.2771	-363.03630999999996	369.09316000000035	-30.229080000000007	-205.87080000000003	368.4178499999998	831.3079000000002	-156.09449	262.0627399999994	430.85984	-95.85628	215.4066700000003	48.52086999999999	76.30643999999998	250.3456900000001	16.472289999999997	261.4841	401.73013999999966	985.0295	-253.06778999999997	350.4514999999992	1053.3699500000002	-299.2398800000001	291.3458300000002	1118.7829	-348.79496000000006	226.81188999999904	1171.4309899999998	-398.96578000000005	157.30574999999953	1228.2914999999998	-449.36811	113.1883399999997	1302.2460499999995	-407.76368999999994	95.0648999999994	1386.04981	-273.26938000000007	201.70461000000068	1218.2778200000002	-453.9585900000001	290.66295999999966	1225.5349800000001	-545.1665800000001	354.2645400000001	977.1429899999999	-614.1357100000001	451.07634999999937	782.25807	-756.50631	482.5407800000012	780.65496	-781.0896600000001	489.0111400000005	769.9602200000002	-815.7308799999998	490.9950200000003	758.9941	-838.7593200000001	490.4912999999997	746.8423099999999	-857.0197600000001	478.6177799999987	767.5346999999999	-778.4418200000001	501.6905800000004	733.5469000000002	-812.12689	505.8288900000007	711.8231600000001	-840.7789	502.12391000000025	704.87933	-859.73062	494.8227500000012	703.55808	-876.18509	470.38854999999967	759.24013	-774.53687	488.4452799999999	721.6023699999998	-805.27859	491.78543999999965	696.9156500000001	-835.92563	486.7513799999997	688.0670600000001	-858.49362	478.4883399999999	686.3923400000001	-876.3536299999998	464.09493999999904	754.19799	-770.8650600000001	475.133319999999	715.9457199999999	-795.07225	476.81341000000066	693.4850499999999	-821.1047999999998	471.30380999999943	684.4487800000002	-842.5125599999999	463.22461999999905	682.6366700000001	-859.1344600000002	455.3131599999997	749.7600100000001	-766.07762	460.39716000000044	711.76273	-785.1606799999998	459.77275999999983	692.47206	-804.8412799999999	454.8012000000017	685.24969	-819.8924899999998	447.09598000000005	683.28115	-834.2923799999999	158.63925000000017	1203.7580599999997	-408.90834	96.45683000000008	1126.45229	-327.73226000000005	191.5546800000011	983.14429	-529.0556700000001	420.0436499999996	866.2160999999998	-563.25146	402.6088400000008	882.74317	-595.1858499999998	407.4424400000007	882.1894799999999	-631.6904699999999	411.33120000000054	877.40884	-656.52035	415.0201899999993	869.66358	-676.71357	400.46909999999843	868.9787600000001	-595.8962099999999	382.9460999999992	854.84483	-644.0146600000002	383.6443799999997	842.4754500000001	-678.0219300000001	392.08923999999934	838.0716300000001	-696.1989	404.48255000000063	836.6432600000002	-709.24375	403.1132899999993	857.39646	-592.63624	387.4484399999983	837.3465100000001	-637.8060500000001	388.632239999999	822.3634700000002	-674.3291700000001	399.0231100000001	816.33756	-695.9779999999998	412.682060000001	814.4281	-710.1148200000001	405.2975900000001	849.5684300000001	-589.10557	392.7716700000001	824.78734	-626.5230599999999	394.2607700000008	810.2413300000001	-657.68704	404.52646000000095	803.63931	-678.2134	417.4844099999991	801.4697999999999	-691.3370199999999	409.3545900000008	841.0014900000001	-583.6390100000001	399.9218600000004	812.96686	-614.60491	401.8832999999995	799.10757	-638.3518799999999	409.7431400000005	793.2223099999999	-652.73953	421.43587000000116	790.68484	-664.02863
69	0.567	446.8050000000003	859.65103	-201.189	534.5712800000001	859.6101900000002	-233.18627999999998	404.2444599999999	465.97018	-291.10170999999997	441.6083200000012	50.40572999999999	-360.69457000000006	368.3914299999997	-29.830560000000002	-203.40490999999997	368.0776100000003	830.9622400000001	-156.91322	261.9442600000002	430.59545	-95.75077999999999	214.70025999999962	49.07148999999999	78.05183999999998	249.79023000000052	17.718719999999998	263.32003999999995	401.9218299999993	985.13127	-252.98788999999996	350.86079999999856	1053.67561	-299.09886000000006	292.0100999999995	1119.3477899999998	-348.6145000000001	227.77801999999974	1172.34453	-398.80562	158.60061000000042	1229.5780800000002	-449.23800000000006	115.00291000000016	1303.7807300000002	-407.52761000000004	96.62903000000006	1387.65534	-273.11147000000005	203.09513999999945	1219.8245500000003	-453.44639	293.07600000000093	1229.185	-543.45182	361.0823700000001	982.54708	-614.4824999999998	463.3922299999995	793.6293500000002	-760.9912900000002	495.326939999999	793.42588	-785.01325	502.6518899999992	783.93514	-819.8346299999998	505.28578000000016	773.72466	-843.1436100000001	505.37091000000146	762.1319600000002	-861.77063	491.6327600000004	780.1530099999999	-782.8393099999998	516.0255899999993	747.6950599999998	-817.09831	521.1417399999991	726.9511199999998	-846.313	517.930049999999	720.51864	-865.5333	510.9598699999988	719.5546599999999	-882.15526	483.5096799999992	771.5758899999998	-779.34398	502.91132000000107	735.27748	-810.8670200000001	507.32830000000104	711.61758	-842.18044	502.8940899999998	703.3655900000001	-865.0976	494.9954799999996	702.0719100000001	-883.1530899999999	477.2574000000004	766.2957099999999	-775.94639	489.5370299999995	729.03897	-801.0902900000001	492.16358000000037	707.42787	-827.7559900000001	487.2367699999995	698.9429500000001	-849.52833	479.5022200000003	697.47768	-866.3472100000001	468.4848499999989	761.53414	-771.46255	474.7135100000014	724.25305	-791.59033	474.85389999999825	705.5675	-811.85548	470.3107600000003	698.7109199999998	-827.21013	462.912769999999	697.0286999999998	-841.8061	159.57765000000018	1204.50187	-409.1021	96.41759999999977	1125.9342499999998	-329.91668	193.55220000000008	986.82124	-533.2005699999999	425.0196199999991	875.70371	-566.73401	408.7764500000012	893.23949	-598.75865	414.2071099999994	892.90298	-635.1818799999999	418.3330900000001	888.25049	-659.99782	422.0670800000007	880.5923100000001	-680.2159599999999	406.12448999999833	879.5761199999998	-599.6650499999998	388.89702000000034	866.6572100000001	-648.22969	389.70168999999987	854.6458000000001	-682.3627000000001	398.28074000000015	850.1214399999999	-700.4469799999999	410.8310199999996	848.3618599999999	-713.2998800000001	408.2679900000003	867.8655500000001	-596.4969699999999	392.6206000000002	848.93144	-642.1517499999999	393.8533499999994	834.31755	-678.82253	404.37388999999894	828.1359	-700.3645599999999	418.18892999999844	825.8590399999999	-714.29378	410.0909100000008	859.9209200000001	-593.02209	397.2666399999998	836.05341	-630.9292	398.7297500000004	821.80537	-662.2317600000001	409.0840500000013	815.04051	-682.6603500000001	422.17149000000063	812.51957	-695.5912699999999	413.72364000000016	851.1447	-587.58922	403.75544999999875	823.83627	-619.03264	405.5902699999988	810.17449	-642.90385	413.46356000000014	804.15057	-657.22662	425.24152999999933	801.2903500000001	-668.34872
70	0.575	446.8050000000003	859.65103	-201.189	534.8419400000002	859.9201000000003	-232.43274	404.2954800000007	466.27717000000007	-289.83125000000007	441.23965000000135	50.504239999999996	-358.39536000000004	367.9878000000008	-29.472709999999996	-200.98994000000002	367.7671100000007	830.6300200000001	-157.68974	261.8527099999992	430.30481	-95.87893999999999	214.00589000000036	49.59227	79.53063	249.2219700000005	18.990950000000005	264.90053	402.0803699999997	985.21012	-252.93391999999997	351.22147999999834	1053.9367500000003	-298.99691	292.6115399999999	1119.84475	-348.48480000000006	228.67021000000022	1173.1661	-398.7033599999999	159.8085799999999	1230.74674	-449.17278	116.69799000000057	1305.1792600000003	-407.36578	98.03290000000015	1389.12328	-273.0331100000001	204.39220000000023	1221.24617	-452.99972999999994	295.33619999999974	1232.67512	-541.79004	367.74733000000015	987.87301	-614.79031	475.47957999999926	805.14874	-765.2152100000001	507.40917999999874	804.9293999999999	-789.2438200000001	514.7245700000003	795.4247499999999	-824.0634100000001	517.3511699999999	785.2055	-847.36938	517.4296599999998	773.60626	-865.9923499999999	503.71236000000135	791.6581500000001	-787.0644500000001	528.0903799999996	759.18251	-821.31723	533.195529999999	738.42716	-850.5257399999999	529.9782900000009	731.9887000000001	-869.7430999999999	523.0043800000003	731.02052	-886.36326	495.5880099999995	783.08415	-783.56441	514.9745199999998	746.77019	-815.0788300000002	519.3793700000006	723.09829	-846.3849	514.9384000000009	714.83931	-869.2982299999999	507.0356900000006	713.54116	-887.35161	489.3352100000011	777.8066200000001	-780.16366	501.6008299999994	740.5382199999999	-805.2971	504.2167099999988	718.9171699999999	-831.95578	499.2833300000002	710.4257899999998	-853.7241100000001	491.5449000000008	708.95644	-870.5408499999998	480.56249000000025	773.04868	-775.6763	486.77820000000065	735.7590899999999	-795.7923399999997	486.9099499999993	717.06642	-816.05098	482.3619799999997	710.20553	-831.4022699999999	474.9605100000008	708.51993	-845.99609	160.44467000000077	1205.15289	-409.35807	96.3125	1125.4102500000001	-332.15334	193.42383999999947	986.2496	-535.41573	427.70454999999856	880.9737999999999	-568.25348	412.68644999999924	899.4972099999999	-600.32001	418.6934199999996	899.3589599999999	-636.6539400000001	423.0381699999998	894.8284800000001	-661.4551100000001	426.79837000000043	887.2582799999999	-681.7015099999998	409.51577	885.9600900000002	-601.4315	392.5896900000007	874.2803000000002	-650.4141300000001	393.47955	862.63337	-684.6711100000001	402.1685300000008	857.97928	-702.6697899999999	414.84821999999986	855.87197	-715.3421	411.1463299999996	874.13906	-598.3699199999999	395.5154899999998	856.35394	-644.4900500000001	396.77238000000034	842.11856	-681.3085899999999	407.3925199999994	835.77116	-702.7533300000001	421.3330900000001	833.10934	-716.4878700000002	412.5992900000001	866.08997	-594.9617000000001	399.46907999999894	843.1766999999999	-633.3498299999999	400.8828700000013	829.23706	-664.7931999999997	411.29587999999967	822.30091	-685.1343199999999	424.4836500000001	819.4125799999999	-697.8852100000001	415.7958500000004	857.11651	-589.5771000000001	405.27870000000075	830.57955	-621.4986199999998	406.9655899999998	817.12696	-645.4992	414.8292399999991	810.95984	-659.76622	426.66589999999997	807.76366	-670.73346
71	0.583	446.8050000000003	859.65103	-201.189	535.09764	860.20069	-231.69891000000004	404.4572700000008	466.50040999999993	-288.48717999999997	441.0782399999989	50.52345999999999	-355.97880999999995	367.76904000000104	-29.19639	-198.46971000000002	367.46944000000076	830.32949	-158.43962	261.74683000000005	430.02597999999995	-96.16174999999998	213.34272000000055	50.11354	80.8226	248.6870199999994	20.313130000000005	266.29855	402.24910999999884	985.2803599999999	-252.90899999999996	351.5968500000017	1054.1770999999999	-298.94554999999997	293.2316299999984	1120.3064399999998	-348.42738	229.58366000000024	1173.93508	-398.69137	161.0391300000001	1231.8441700000003	-449.21662	118.39155000000028	1306.4881399999997	-407.31181999999995	99.41323999999986	1390.47024	-273.04686	205.70499999999993	1222.5849199999998	-452.65629	297.5623799999994	1236.0469400000002	-540.2128200000001	374.3945700000004	993.15688	-615.0574700000001	487.3955199999982	816.82958	-769.20517	519.3522000000012	816.69793	-793.19841	526.7188900000001	807.2695099999999	-828.0279	529.3848799999996	797.0983200000001	-851.3504200000001	529.49935	785.5348500000002	-869.9954400000001	515.6703000000016	803.41772	-791.0485600000001	540.1290399999998	771.0395699999999	-825.3360799999999	545.2939500000011	750.3468400000002	-854.5784900000001	542.1065899999994	743.9409700000001	-873.81172	535.1525199999996	742.9955	-890.4414900000002	507.55327999999827	794.82644	-787.57402	527.0224699999999	758.5982	-819.1361100000001	531.4932499999995	734.9920299999999	-850.48244	527.0886799999989	726.77113	-873.4164700000001	519.2078300000012	725.49721	-891.4811399999999	501.3035999999993	789.53424	-784.19036	513.6460299999999	752.3300599999999	-809.38129	516.3199599999989	730.76351	-836.0783200000001	511.4220100000002	722.3073600000001	-857.8683600000002	503.7042899999997	720.8601	-874.6965199999999	492.5321099999983	784.7562699999999	-779.7219399999999	498.8190599999998	747.5133900000001	-799.90228	498.99789000000055	728.85971	-820.19646	494.4760400000014	722.02228	-835.56593	487.0930900000003	720.3549499999999	-850.1712200000001	161.34052000000065	1205.7574900000004	-409.71908	96.27164999999968	1124.92542	-334.45547	193.5082999999995	986.0273899999999	-537.8375600000002	430.45086000000083	886.66158	-569.9844	416.65763999999945	906.1345999999999	-602.0385699999999	423.20018999999957	906.1797300000001	-638.2801199999999	427.7356499999987	901.76852	-663.06865	431.4988999999987	894.2905399999999	-683.34872	412.9734900000003	892.74725	-603.36075	396.3391500000016	882.31412	-652.72325	397.2847899999997	871.0386699999999	-687.1028100000001	406.053460000001	866.25336	-705.0282800000001	418.829459999999	863.79314	-717.5392200000001	414.0911300000007	880.8363200000001	-600.41979	398.4674500000001	864.2186699999999	-646.9757199999999	399.71639999999934	850.3721100000002	-683.9425199999998	410.39965999999913	843.85847	-705.3058999999998	424.42958	840.80665	-718.86726	415.1746299999995	872.6971299999999	-597.0889499999998	401.7311900000004	850.76722	-635.94023	403.0676999999996	837.1477	-667.52694	413.5042400000002	830.0412199999998	-687.7970899999998	426.75830999999926	826.7814699999998	-700.38869	417.93407000000116	863.5425	-591.7679299999999	406.86145000000033	837.81375	-624.1597800000001	408.37806999999884	824.5838599999998	-648.29515	416.2064599999994	818.2762200000002	-662.52006	428.0716800000009	814.74166	-673.35176
